<svg width="586" height="186" viewBox="0 0 586 186" fill="none" xmlns="http://www.w3.org/2000/svg">
<path d="M248.622 53.0519C248.141 52.7846 247.498 52.4104 246.695 51.9292C245.892 51.4481 244.259 50.5928 241.796 49.3632C239.333 48.1336 236.924 47.0645 234.568 46.1557C232.213 45.1934 229.455 44.3381 226.297 43.5896C223.191 42.7877 220.327 42.3868 217.703 42.3868C211.439 42.3868 208.307 44.3113 208.307 48.1604C208.307 49.0157 208.441 49.7909 208.709 50.4858C209.03 51.1808 209.566 51.8223 210.315 52.4104C211.065 52.9984 211.787 53.5063 212.483 53.934C213.233 54.3616 214.357 54.8428 215.856 55.3774C217.355 55.9119 218.64 56.3396 219.711 56.6604C220.782 56.9811 222.415 57.489 224.61 58.184C226.805 58.8255 228.599 59.3601 229.991 59.7877C234.702 61.2311 238.691 62.6478 241.957 64.0377C245.276 65.4277 248.489 67.1384 251.594 69.1698C254.699 71.1478 257.189 73.3396 259.063 75.7453C260.936 78.1509 262.409 81.0645 263.48 84.4858C264.604 87.8538 265.166 91.6761 265.166 95.9528C265.166 101.352 264.309 106.217 262.596 110.547C260.883 114.877 258.607 118.432 255.77 121.212C252.986 123.939 249.64 126.211 245.731 128.028C241.823 129.846 237.807 131.129 233.685 131.877C229.616 132.626 225.306 133 220.755 133C212.35 133 203.542 131.77 194.334 129.311C185.125 126.799 177.014 123.484 170 119.368L183.813 91.3019C184.349 91.6761 185.071 92.1572 185.981 92.7453C186.945 93.2799 188.873 94.2956 191.764 95.7924C194.708 97.2358 197.599 98.5189 200.437 99.6415C203.275 100.764 206.621 101.807 210.476 102.769C214.384 103.678 217.998 104.132 221.317 104.132C227.528 104.132 230.633 102.421 230.633 99C230.633 97.717 230.232 96.5943 229.429 95.6321C228.625 94.6163 227.287 93.7076 225.413 92.9057C223.539 92.0503 221.719 91.3553 219.952 90.8208C218.239 90.2327 215.776 89.4843 212.564 88.5755C209.405 87.6132 206.781 86.7846 204.693 86.0896C194.2 82.5613 186.624 78.3381 181.966 73.4198C177.362 68.4481 175.059 61.7657 175.059 53.3726C175.059 47.1179 176.237 41.4513 178.593 36.3726C181.002 31.294 184.215 27.1509 188.23 23.9434C192.299 20.7358 196.93 18.2767 202.124 16.566C207.317 14.8553 212.831 14 218.667 14C231.142 14 245.731 18.1965 262.436 26.5896L248.622 53.0519Z" fill="#2670E8"/>
<path d="M303.313 14.9623H339.131L376.314 131.557H343.788L336.721 108.703H305.561L298.655 131.557H265.969L303.313 14.9623ZM331.581 87.3726L321.222 46.316L310.38 87.3726H331.581Z" fill="#2670E8"/>
<path d="M438.954 69.4906H486.979V131.557H460.477V121.854C452.232 128.857 442.649 132.358 431.727 132.358C424.071 132.358 416.816 130.995 409.963 128.269C403.163 125.489 397.14 121.613 391.893 116.642C386.7 111.616 382.578 105.281 379.526 97.6368C376.474 89.9921 374.948 81.5456 374.948 72.2972C374.948 64.2248 376.501 56.6069 379.606 49.4434C382.711 42.2799 386.914 36.1321 392.215 31C397.515 25.8145 403.859 21.7248 411.248 18.7311C418.69 15.684 426.56 14.1604 434.859 14.1604C445.406 14.1604 454.936 16.4324 463.449 20.9764C471.961 25.5204 478.306 31.7217 482.482 39.5802L458.71 57.783C456.462 53.1855 453.009 49.4969 448.351 46.717C443.693 43.9371 438.794 42.5472 433.654 42.5472C426.051 42.5472 419.787 45.434 414.862 51.2075C409.99 56.9811 407.554 64.3852 407.554 73.4198C407.554 82.5613 410.016 89.9387 414.942 95.5519C419.921 101.165 426.426 103.972 434.457 103.972C443.612 103.972 451.857 100.149 459.192 92.5047H438.954V69.4906Z" fill="#2670E8"/>
<path d="M586 103.651V131.557H502.8V14.9623H584.554V42.8679H534.843V59.3066H577.327V85.2076H534.843V103.651H586Z" fill="#2670E8"/>
<g clip-path="url(#clip0)">
<path d="M72.4152 103.945C72.4152 102.501 71.6417 101.167 70.388 100.45L50.5472 89.1V66.0558C50.5472 64.6129 49.7751 63.2803 48.5233 62.5626L24.8825 49.0096C23.5403 48.2401 21.8679 49.2091 21.8679 50.7562V72.6585L3.03423 61.5766C1.69213 60.7869 0 61.7545 0 63.3117V90.6963C0 92.1405 0.773507 93.4742 2.02712 94.1913L21.8679 105.542V128.586C21.8679 130.029 22.64 131.361 23.8918 132.079L47.5327 145.632C48.8748 146.401 50.5472 145.432 50.5472 143.885V121.983L69.3809 133.065C70.723 133.855 72.4152 132.887 72.4152 131.33V103.945Z" fill="#268744"/>
<path d="M152 63.3117C152 61.7545 150.308 60.7869 148.966 61.5766L130.132 72.6585V50.7562C130.132 49.2091 128.46 48.2401 127.118 49.0096L103.477 62.5626C102.225 63.2803 101.453 64.6129 101.453 66.0558V89.1L81.6121 100.45C80.3585 101.167 79.585 102.501 79.585 103.945V131.33C79.585 132.887 81.2771 133.855 82.6192 133.065L101.453 121.983V143.885C101.453 145.432 103.125 146.401 104.467 145.632L128.108 132.079C129.36 131.361 130.132 130.029 130.132 128.586V105.542L149.973 94.1913C151.227 93.4742 152 92.1405 152 90.6963V63.3117Z" fill="#2670E8"/>
<path d="M76.0003 45.1368L95.8667 56.5016C97.1066 57.2109 98.6295 57.2102 99.8687 56.4998L123.54 42.929C124.881 42.1606 124.892 40.2309 123.56 39.4473L104.68 28.3378L123.496 17.5736C124.847 16.801 124.848 14.8535 123.498 14.0795L99.8687 0.533321C98.6295 -0.177115 97.1066 -0.177816 95.8667 0.531475L76.0003 11.8963L56.1339 0.531476C54.894 -0.177815 53.3711 -0.177114 52.1319 0.533322L28.503 14.0795C27.153 14.8535 27.1539 16.801 28.5046 17.5736L47.3211 28.3378L28.4405 39.4473C27.1088 40.2309 27.1197 42.1606 28.4602 42.929L52.1319 56.4998C53.3712 57.2102 54.894 57.2109 56.1339 56.5016L76.0003 45.1368Z" fill="#FBBA00"/>
</g>
<path d="M24.0566 169.191C23.5977 168.684 22.8164 168.195 21.7129 167.727C20.6094 167.258 19.4717 167.023 18.2998 167.023C16.9131 167.023 15.873 167.282 15.1797 167.8C14.4961 168.308 14.1543 169.03 14.1543 169.968C14.1543 170.261 14.1934 170.524 14.2715 170.759C14.3496 170.993 14.4473 171.203 14.5645 171.389C14.6914 171.564 14.877 171.735 15.1211 171.901C15.3652 172.067 15.6045 172.209 15.8389 172.326C16.083 172.443 16.4102 172.57 16.8203 172.707C17.2402 172.834 17.6309 172.946 17.9922 173.044C18.3535 173.132 18.8271 173.249 19.4131 173.396C20.3506 173.62 21.1514 173.845 21.8154 174.069C22.4795 174.284 23.1191 174.562 23.7344 174.904C24.3496 175.236 24.8428 175.612 25.2139 176.032C25.585 176.442 25.8779 176.945 26.0928 177.541C26.3174 178.137 26.4297 178.815 26.4297 179.577C26.4297 180.427 26.293 181.193 26.0195 181.877C25.7559 182.561 25.3896 183.137 24.9209 183.605C24.4521 184.074 23.8857 184.47 23.2217 184.792C22.5576 185.104 21.8447 185.334 21.083 185.48C20.3213 185.617 19.501 185.686 18.6221 185.686C17.001 185.686 15.4336 185.441 13.9199 184.953C12.4062 184.455 11.0439 183.742 9.83301 182.814L11.3711 179.929C11.9863 180.563 12.9873 181.179 14.374 181.774C15.7705 182.36 17.2061 182.653 18.6807 182.653C20.0088 182.653 21.0293 182.419 21.7422 181.95C22.4648 181.481 22.8262 180.808 22.8262 179.929C22.8262 179.577 22.7725 179.26 22.665 178.977C22.5576 178.693 22.3721 178.439 22.1084 178.215C21.8447 177.98 21.5713 177.78 21.2881 177.614C21.0146 177.448 20.6191 177.277 20.1016 177.102C19.5938 176.926 19.125 176.779 18.6953 176.662C18.2754 176.545 17.7041 176.394 16.9814 176.208C15.8584 175.915 14.9307 175.617 14.1982 175.314C13.4658 175.012 12.8164 174.641 12.25 174.201C11.6934 173.762 11.2881 173.244 11.0342 172.648C10.7803 172.043 10.6533 171.33 10.6533 170.51C10.6533 169.484 10.8486 168.562 11.2393 167.741C11.6396 166.911 12.1865 166.228 12.8799 165.69C13.5732 165.153 14.3887 164.743 15.3262 164.46C16.2637 164.177 17.2842 164.035 18.3877 164.035C21.0049 164.035 23.4023 164.836 25.5801 166.438L24.0566 169.191Z" fill="#0C326F"/>
<path d="M35.4824 164.182H38.6611L46.9375 185.48H43.3926L41.1514 179.694H32.9336L30.707 185.48H27.1328L35.4824 164.182ZM40.4922 177.204L37.0645 167.873L33.5342 177.204H40.4922Z" fill="#0C326F"/>
<path d="M49.5742 185.48V164.182H52.9287V182.507H64.3691V185.48H49.5742Z" fill="#0C326F"/>
<path d="M73.2461 164.182H76.4248L84.7012 185.48H81.1562L78.915 179.694H70.6973L68.4707 185.48H64.8965L73.2461 164.182ZM78.2559 177.204L74.8281 167.873L71.2979 177.204H78.2559Z" fill="#0C326F"/>
<path d="M93.8125 185.48V164.182H101.371C103.041 164.182 104.54 164.46 105.868 165.017C107.206 165.563 108.3 166.325 109.149 167.302C109.999 168.269 110.644 169.392 111.083 170.671C111.532 171.94 111.757 173.317 111.757 174.802C111.757 178.024 110.81 180.612 108.915 182.565C107.03 184.509 104.516 185.48 101.371 185.48H93.8125ZM101.371 167.155H97.167V182.507H101.371C102.836 182.507 104.096 182.17 105.15 181.496C106.215 180.812 107.011 179.895 107.538 178.742C108.065 177.59 108.329 176.276 108.329 174.802C108.329 172.526 107.709 170.686 106.469 169.279C105.238 167.863 103.539 167.155 101.371 167.155Z" fill="#0C326F"/>
<path d="M129.892 182.507V185.48H115.287V164.182H129.628V167.155H118.642V173.205H128.148V176.003H118.642V182.507H129.892Z" fill="#0C326F"/>
<path d="M145.99 164.182H149.169L157.445 185.48H153.9L151.659 179.694H143.441L141.215 185.48H137.641L145.99 164.182ZM151 177.204L147.572 167.873L144.042 177.204H151Z" fill="#0C326F"/>
<path d="M160.082 185.48V164.182H169.018C170.248 164.182 171.376 164.523 172.401 165.207C173.437 165.891 174.232 166.76 174.789 167.814C175.346 168.869 175.624 169.968 175.624 171.11C175.624 171.999 175.468 172.863 175.155 173.703C174.843 174.543 174.408 175.285 173.852 175.93C173.305 176.574 172.621 177.092 171.801 177.482C170.99 177.873 170.121 178.068 169.193 178.068H163.437V185.48H160.082ZM163.437 175.095H168.988C169.926 175.095 170.692 174.719 171.288 173.967C171.894 173.215 172.196 172.263 172.196 171.11C172.196 169.958 171.864 169.011 171.2 168.269C170.536 167.526 169.74 167.155 168.812 167.155H163.437V175.095Z" fill="#0C326F"/>
<path d="M177.426 174.831C177.426 173.425 177.685 172.067 178.202 170.759C178.729 169.44 179.442 168.288 180.341 167.302C181.239 166.315 182.328 165.524 183.607 164.929C184.887 164.333 186.244 164.035 187.68 164.035C189.154 164.035 190.536 164.348 191.825 164.973C193.114 165.598 194.188 166.423 195.048 167.448C195.917 168.464 196.601 169.621 197.099 170.92C197.597 172.209 197.846 173.522 197.846 174.86C197.846 176.267 197.582 177.624 197.055 178.933C196.537 180.241 195.834 181.389 194.945 182.375C194.057 183.361 192.973 184.152 191.693 184.748C190.414 185.334 189.057 185.627 187.621 185.627C186.43 185.627 185.297 185.432 184.223 185.041C183.148 184.641 182.201 184.094 181.381 183.4C180.57 182.707 179.862 181.906 179.257 180.998C178.661 180.09 178.207 179.108 177.895 178.054C177.582 176.989 177.426 175.915 177.426 174.831ZM187.65 182.595C188.686 182.595 189.638 182.37 190.507 181.921C191.376 181.472 192.089 180.881 192.646 180.148C193.202 179.406 193.632 178.576 193.935 177.658C194.247 176.74 194.403 175.798 194.403 174.831C194.403 173.825 194.237 172.858 193.905 171.931C193.583 170.993 193.134 170.168 192.558 169.455C191.991 168.732 191.278 168.161 190.419 167.741C189.569 167.312 188.646 167.097 187.65 167.097C186.615 167.097 185.658 167.321 184.779 167.771C183.91 168.21 183.192 168.796 182.626 169.528C182.06 170.261 181.62 171.086 181.308 172.004C180.995 172.922 180.839 173.864 180.839 174.831C180.839 176.179 181.107 177.438 181.645 178.61C182.191 179.782 182.992 180.739 184.047 181.481C185.102 182.224 186.303 182.595 187.65 182.595Z" fill="#0C326F"/>
<path d="M201.332 185.48V164.182H204.687V185.48H201.332Z" fill="#0C326F"/>
<path d="M208.158 174.831C208.158 173.425 208.417 172.067 208.935 170.759C209.462 169.44 210.175 168.288 211.073 167.302C211.972 166.315 213.061 165.524 214.34 164.929C215.619 164.333 216.977 164.035 218.412 164.035C219.887 164.035 221.269 164.348 222.558 164.973C223.847 165.598 224.921 166.423 225.78 167.448C226.649 168.464 227.333 169.621 227.831 170.92C228.329 172.209 228.578 173.522 228.578 174.86C228.578 176.267 228.314 177.624 227.787 178.933C227.27 180.241 226.566 181.389 225.678 182.375C224.789 183.361 223.705 184.152 222.426 184.748C221.146 185.334 219.789 185.627 218.354 185.627C217.162 185.627 216.029 185.432 214.955 185.041C213.881 184.641 212.934 184.094 212.113 183.4C211.303 182.707 210.595 181.906 209.989 180.998C209.394 180.09 208.939 179.108 208.627 178.054C208.314 176.989 208.158 175.915 208.158 174.831ZM218.383 182.595C219.418 182.595 220.37 182.37 221.239 181.921C222.108 181.472 222.821 180.881 223.378 180.148C223.935 179.406 224.364 178.576 224.667 177.658C224.979 176.74 225.136 175.798 225.136 174.831C225.136 173.825 224.97 172.858 224.638 171.931C224.315 170.993 223.866 170.168 223.29 169.455C222.724 168.732 222.011 168.161 221.151 167.741C220.302 167.312 219.379 167.097 218.383 167.097C217.348 167.097 216.391 167.321 215.512 167.771C214.643 168.21 213.925 168.796 213.358 169.528C212.792 170.261 212.353 171.086 212.04 172.004C211.728 172.922 211.571 173.864 211.571 174.831C211.571 176.179 211.84 177.438 212.377 178.61C212.924 179.782 213.725 180.739 214.779 181.481C215.834 182.224 217.035 182.595 218.383 182.595Z" fill="#0C326F"/>
<path d="M242.86 158H246.01L247.724 161.296L245.614 161.955L242.86 158ZM244.691 164.182H247.87L256.146 185.48H252.602L250.36 179.694H242.143L239.916 185.48H236.342L244.691 164.182ZM249.701 177.204L246.273 167.873L242.743 177.204H249.701Z" fill="#0C326F"/>
<path d="M275.702 174.714H282.982V185.48H280.17V182.844C278.402 184.699 276.332 185.627 273.959 185.627C272.582 185.627 271.269 185.329 270.019 184.733C268.778 184.138 267.714 183.347 266.825 182.36C265.946 181.374 265.243 180.217 264.716 178.889C264.198 177.551 263.939 176.169 263.939 174.743C263.939 173.317 264.198 171.95 264.716 170.642C265.233 169.323 265.932 168.181 266.811 167.214C267.699 166.247 268.773 165.476 270.033 164.899C271.303 164.323 272.65 164.035 274.076 164.035C276.039 164.035 277.719 164.45 279.115 165.28C280.521 166.101 281.591 167.233 282.323 168.679L279.745 170.539C279.169 169.406 278.378 168.547 277.372 167.961C276.366 167.365 275.238 167.067 273.988 167.067C272.689 167.067 271.527 167.434 270.502 168.166C269.477 168.889 268.695 169.841 268.158 171.022C267.621 172.194 267.353 173.464 267.353 174.831C267.353 176.989 268.012 178.825 269.33 180.339C270.648 181.843 272.279 182.595 274.223 182.595C276.43 182.595 278.412 181.555 280.17 179.475V177.204H275.702V174.714Z" fill="#0C326F"/>
<path d="M301.425 182.507V185.48H286.82V164.182H301.161V167.155H290.175V173.205H299.682V176.003H290.175V182.507H301.425Z" fill="#0C326F"/>
<path d="M317.494 169.191C317.035 168.684 316.254 168.195 315.15 167.727C314.047 167.258 312.909 167.023 311.737 167.023C310.351 167.023 309.311 167.282 308.617 167.8C307.934 168.308 307.592 169.03 307.592 169.968C307.592 170.261 307.631 170.524 307.709 170.759C307.787 170.993 307.885 171.203 308.002 171.389C308.129 171.564 308.314 171.735 308.559 171.901C308.803 172.067 309.042 172.209 309.276 172.326C309.521 172.443 309.848 172.57 310.258 172.707C310.678 172.834 311.068 172.946 311.43 173.044C311.791 173.132 312.265 173.249 312.851 173.396C313.788 173.62 314.589 173.845 315.253 174.069C315.917 174.284 316.557 174.562 317.172 174.904C317.787 175.236 318.28 175.612 318.651 176.032C319.022 176.442 319.315 176.945 319.53 177.541C319.755 178.137 319.867 178.815 319.867 179.577C319.867 180.427 319.73 181.193 319.457 181.877C319.193 182.561 318.827 183.137 318.358 183.605C317.89 184.074 317.323 184.47 316.659 184.792C315.995 185.104 315.282 185.334 314.521 185.48C313.759 185.617 312.938 185.686 312.06 185.686C310.438 185.686 308.871 185.441 307.357 184.953C305.844 184.455 304.481 183.742 303.271 182.814L304.809 179.929C305.424 180.563 306.425 181.179 307.812 181.774C309.208 182.36 310.644 182.653 312.118 182.653C313.446 182.653 314.467 182.419 315.18 181.95C315.902 181.481 316.264 180.808 316.264 179.929C316.264 179.577 316.21 179.26 316.103 178.977C315.995 178.693 315.81 178.439 315.546 178.215C315.282 177.98 315.009 177.78 314.726 177.614C314.452 177.448 314.057 177.277 313.539 177.102C313.031 176.926 312.562 176.779 312.133 176.662C311.713 176.545 311.142 176.394 310.419 176.208C309.296 175.915 308.368 175.617 307.636 175.314C306.903 175.012 306.254 174.641 305.688 174.201C305.131 173.762 304.726 173.244 304.472 172.648C304.218 172.043 304.091 171.33 304.091 170.51C304.091 169.484 304.286 168.562 304.677 167.741C305.077 166.911 305.624 166.228 306.317 165.69C307.011 165.153 307.826 164.743 308.764 164.46C309.701 164.177 310.722 164.035 311.825 164.035C314.442 164.035 316.84 164.836 319.018 166.438L317.494 169.191Z" fill="#0C326F"/>
<path d="M338.866 167.155H331.791V185.48H328.393V167.155H321.288V164.182H338.866V167.155Z" fill="#0C326F"/>
<path d="M345.458 160.197C345.146 160.197 344.882 160.266 344.667 160.402C344.452 160.529 344.301 160.69 344.213 160.886C344.125 161.071 344.066 161.228 344.037 161.354C344.008 161.472 343.993 161.564 343.993 161.633H342.133C342.133 161.486 342.162 161.286 342.221 161.032C342.279 160.778 342.387 160.485 342.543 160.153C342.709 159.812 342.904 159.499 343.129 159.216C343.363 158.923 343.671 158.679 344.052 158.483C344.442 158.278 344.872 158.176 345.341 158.176C345.839 158.176 346.312 158.288 346.762 158.513C347.211 158.728 347.641 158.947 348.051 159.172C348.461 159.387 348.866 159.494 349.267 159.494C349.54 159.494 349.779 159.445 349.984 159.348C350.199 159.25 350.36 159.138 350.468 159.011C350.585 158.884 350.678 158.747 350.746 158.601C350.814 158.444 350.854 158.322 350.863 158.234C350.883 158.146 350.893 158.078 350.893 158.029H352.782C352.782 158.156 352.748 158.342 352.68 158.586C352.621 158.83 352.504 159.123 352.328 159.465C352.162 159.807 351.957 160.124 351.713 160.417C351.469 160.71 351.137 160.964 350.717 161.179C350.307 161.384 349.853 161.486 349.354 161.486C348.837 161.486 348.344 161.379 347.875 161.164C347.406 160.949 346.972 160.734 346.571 160.52C346.181 160.305 345.81 160.197 345.458 160.197ZM345.854 164.182H349.032L357.309 185.48H353.764L351.522 179.694H343.305L341.078 185.48H337.504L345.854 164.182ZM350.863 177.204L347.436 167.873L343.905 177.204H350.863Z" fill="#0C326F"/>
<path d="M357.777 174.831C357.777 173.425 358.036 172.067 358.554 170.759C359.081 169.44 359.794 168.288 360.692 167.302C361.591 166.315 362.68 165.524 363.959 164.929C365.238 164.333 366.596 164.035 368.031 164.035C369.506 164.035 370.888 164.348 372.177 164.973C373.466 165.598 374.54 166.423 375.399 167.448C376.269 168.464 376.952 169.621 377.45 170.92C377.948 172.209 378.197 173.522 378.197 174.86C378.197 176.267 377.934 177.624 377.406 178.933C376.889 180.241 376.186 181.389 375.297 182.375C374.408 183.361 373.324 184.152 372.045 184.748C370.766 185.334 369.408 185.627 367.973 185.627C366.781 185.627 365.648 185.432 364.574 185.041C363.5 184.641 362.553 184.094 361.732 183.4C360.922 182.707 360.214 181.906 359.608 180.998C359.013 180.09 358.559 179.108 358.246 178.054C357.934 176.989 357.777 175.915 357.777 174.831ZM368.002 182.595C369.037 182.595 369.989 182.37 370.858 181.921C371.728 181.472 372.44 180.881 372.997 180.148C373.554 179.406 373.983 178.576 374.286 177.658C374.599 176.74 374.755 175.798 374.755 174.831C374.755 173.825 374.589 172.858 374.257 171.931C373.935 170.993 373.485 170.168 372.909 169.455C372.343 168.732 371.63 168.161 370.771 167.741C369.921 167.312 368.998 167.097 368.002 167.097C366.967 167.097 366.01 167.321 365.131 167.771C364.262 168.21 363.544 168.796 362.978 169.528C362.411 170.261 361.972 171.086 361.659 172.004C361.347 172.922 361.19 173.864 361.19 174.831C361.19 176.179 361.459 177.438 361.996 178.61C362.543 179.782 363.344 180.739 364.398 181.481C365.453 182.224 366.654 182.595 368.002 182.595Z" fill="#0C326F"/>
<path d="M403.7 182.507V185.48H389.096V164.182H403.437V167.155H392.45V173.205H401.957V176.003H392.45V182.507H403.7Z" fill="#0C326F"/>
<path d="M419.77 169.191C419.311 168.684 418.529 168.195 417.426 167.727C416.322 167.258 415.185 167.023 414.013 167.023C412.626 167.023 411.586 167.282 410.893 167.8C410.209 168.308 409.867 169.03 409.867 169.968C409.867 170.261 409.906 170.524 409.984 170.759C410.062 170.993 410.16 171.203 410.277 171.389C410.404 171.564 410.59 171.735 410.834 171.901C411.078 172.067 411.317 172.209 411.552 172.326C411.796 172.443 412.123 172.57 412.533 172.707C412.953 172.834 413.344 172.946 413.705 173.044C414.066 173.132 414.54 173.249 415.126 173.396C416.063 173.62 416.864 173.845 417.528 174.069C418.192 174.284 418.832 174.562 419.447 174.904C420.062 175.236 420.556 175.612 420.927 176.032C421.298 176.442 421.591 176.945 421.806 177.541C422.03 178.137 422.143 178.815 422.143 179.577C422.143 180.427 422.006 181.193 421.732 181.877C421.469 182.561 421.103 183.137 420.634 183.605C420.165 184.074 419.599 184.47 418.935 184.792C418.271 185.104 417.558 185.334 416.796 185.48C416.034 185.617 415.214 185.686 414.335 185.686C412.714 185.686 411.146 185.441 409.633 184.953C408.119 184.455 406.757 183.742 405.546 182.814L407.084 179.929C407.699 180.563 408.7 181.179 410.087 181.774C411.483 182.36 412.919 182.653 414.394 182.653C415.722 182.653 416.742 182.419 417.455 181.95C418.178 181.481 418.539 180.808 418.539 179.929C418.539 179.577 418.485 179.26 418.378 178.977C418.271 178.693 418.085 178.439 417.821 178.215C417.558 177.98 417.284 177.78 417.001 177.614C416.728 177.448 416.332 177.277 415.814 177.102C415.307 176.926 414.838 176.779 414.408 176.662C413.988 176.545 413.417 176.394 412.694 176.208C411.571 175.915 410.644 175.617 409.911 175.314C409.179 175.012 408.529 174.641 407.963 174.201C407.406 173.762 407.001 173.244 406.747 172.648C406.493 172.043 406.366 171.33 406.366 170.51C406.366 169.484 406.562 168.562 406.952 167.741C407.353 166.911 407.899 166.228 408.593 165.69C409.286 165.153 410.102 164.743 411.039 164.46C411.977 164.177 412.997 164.035 414.101 164.035C416.718 164.035 419.115 164.836 421.293 166.438L419.77 169.191Z" fill="#0C326F"/>
<path d="M441.142 167.155H434.066V185.48H430.668V167.155H423.563V164.182H441.142V167.155Z" fill="#0C326F"/>
<path d="M443.998 185.48V164.182H453.271C454.198 164.182 455.077 164.382 455.907 164.782C456.747 165.183 457.45 165.71 458.017 166.364C458.583 167.019 459.032 167.761 459.364 168.591C459.696 169.421 459.862 170.261 459.862 171.11C459.862 172.556 459.481 173.864 458.72 175.036C457.958 176.198 456.952 176.979 455.702 177.38L460.712 185.48H456.933L452.304 178.068H447.353V185.48H443.998ZM447.353 175.095H453.241C454.169 175.095 454.936 174.709 455.541 173.938C456.146 173.156 456.449 172.214 456.449 171.11C456.449 170.026 456.107 169.099 455.424 168.327C454.74 167.546 453.949 167.155 453.051 167.155H447.353V175.095Z" fill="#0C326F"/>
<path d="M469.984 164.182H473.163L481.439 185.48H477.895L475.653 179.694H467.436L465.209 185.48H461.635L469.984 164.182ZM474.994 177.204L471.566 167.873L468.036 177.204H474.994Z" fill="#0C326F"/>
<path d="M497.685 167.155H490.609V185.48H487.211V167.155H480.106V164.182H497.685V167.155Z" fill="#0C326F"/>
<path d="M509.184 161.984L507.016 161.325L508.729 158.029H511.879L509.184 161.984ZM515.146 182.507V185.48H500.541V164.182H514.882V167.155H503.896V173.205H513.402V176.003H503.896V182.507H515.146Z" fill="#0C326F"/>
<path d="M528.651 174.714H535.932V185.48H533.119V182.844C531.352 184.699 529.281 185.627 526.908 185.627C525.531 185.627 524.218 185.329 522.968 184.733C521.728 184.138 520.663 183.347 519.774 182.36C518.896 181.374 518.192 180.217 517.665 178.889C517.147 177.551 516.889 176.169 516.889 174.743C516.889 173.317 517.147 171.95 517.665 170.642C518.183 169.323 518.881 168.181 519.76 167.214C520.648 166.247 521.723 165.476 522.982 164.899C524.252 164.323 525.6 164.035 527.025 164.035C528.988 164.035 530.668 164.45 532.064 165.28C533.471 166.101 534.54 167.233 535.272 168.679L532.694 170.539C532.118 169.406 531.327 168.547 530.321 167.961C529.315 167.365 528.188 167.067 526.938 167.067C525.639 167.067 524.477 167.434 523.451 168.166C522.426 168.889 521.645 169.841 521.107 171.022C520.57 172.194 520.302 173.464 520.302 174.831C520.302 176.989 520.961 178.825 522.279 180.339C523.598 181.843 525.229 182.595 527.172 182.595C529.379 182.595 531.361 181.555 533.119 179.475V177.204H528.651V174.714Z" fill="#0C326F"/>
<path d="M539.77 185.48V164.182H543.124V185.48H539.77Z" fill="#0C326F"/>
<path d="M556.908 164.064C558.773 164.064 560.409 164.489 561.815 165.339C563.231 166.179 564.296 167.302 565.009 168.708L562.372 170.48C562.089 169.865 561.732 169.333 561.303 168.884C560.873 168.425 560.404 168.073 559.896 167.829C559.389 167.575 558.876 167.39 558.358 167.272C557.851 167.155 557.328 167.097 556.791 167.097C555.932 167.097 555.131 167.248 554.389 167.551C553.646 167.844 553.012 168.239 552.484 168.737C551.957 169.235 551.503 169.816 551.122 170.48C550.741 171.145 550.458 171.843 550.272 172.575C550.097 173.308 550.009 174.05 550.009 174.802C550.009 176.179 550.297 177.463 550.873 178.654C551.459 179.846 552.284 180.808 553.349 181.54C554.413 182.263 555.59 182.624 556.879 182.624C557.611 182.624 558.324 182.512 559.018 182.287C559.721 182.053 560.395 181.667 561.039 181.13C561.693 180.583 562.196 179.914 562.548 179.123L565.346 180.705C564.926 181.721 564.242 182.614 563.295 183.386C562.348 184.157 561.308 184.729 560.175 185.1C559.042 185.471 557.904 185.656 556.762 185.656C555.316 185.656 553.949 185.339 552.66 184.704C551.381 184.069 550.302 183.234 549.423 182.199C548.554 181.164 547.865 179.992 547.357 178.684C546.85 177.365 546.596 176.032 546.596 174.685C546.596 173.649 546.742 172.624 547.035 171.608C547.328 170.583 547.768 169.621 548.354 168.723C548.949 167.814 549.652 167.014 550.463 166.32C551.273 165.627 552.235 165.08 553.349 164.68C554.462 164.27 555.648 164.064 556.908 164.064Z" fill="#0C326F"/>
<path d="M574.311 164.182H577.489L585.766 185.48H582.221L579.979 179.694H571.762L569.535 185.48H565.961L574.311 164.182ZM579.32 177.204L575.893 167.873L572.362 177.204H579.32Z" fill="#0C326F"/>
<defs>
<clipPath id="clip0">
<rect width="152" height="146" fill="white"/>
</clipPath>
</defs>
</svg>
